# xmcd CD database file
# Copyright (C) 1995-1998 Ti Kan
#
# Track frame offsets:
#	150
#	17623
#	38365
#	58314
#	72977
#	90804
#	110171
#	129663
#	147019
#	168233
#	185737
#	202459
#
# Disc length: 2929 seconds
#
# Revision: 1
# Processed by: cddbd v1.4PL0 Copyright (c) Steve Scherf et al.
# Submitted via: CDex 1.30Release
#
DISCID=ab0b6f0c
DTITLE=Ben Atkins Band - Small Town Things
DYEAR=2001
DGENRE=Country
TTITLE0=Texas Ranger
TTITLE1=Country Girl Angel
TTITLE2=Get Up And Go
TTITLE3=Sale Barn Nights
TTITLE4=Huntin' Here In TX.
TTITLE5=Small Town Things
TTITLE6=My Texas Dream
TTITLE7=Take Me Home
TTITLE8=Your On My Mind
TTITLE9=Honkey Tonk Life
TTITLE10=Gunslinger
TTITLE11=A Cowboys Life
EXTD=YEAR: 2001 ID3G:   2
EXTT0=
EXTT1=
EXTT2=
EXTT3=
EXTT4=
EXTT5=
EXTT6=
EXTT7=
EXTT8=
EXTT9=
EXTT10=
EXTT11=
PLAYORDER=
